%
M48
M72
T01C0.03200
T02C0.04000
T03C0.04724
%
T01
X9667Y53500
X34667Y73500
X44667Y73500
X62167Y83500
X74667Y91000
X84667Y91000
X94667Y91000
X107167Y83500
X122167Y91000
X132167Y91000
X142167Y91000
X154667Y86000
X169667Y93500
X179667Y93500
X189667Y93500
X202167Y101000
X217167Y91000
X227167Y91000
X237167Y91000
X249667Y83500
X264667Y91000
X274667Y91000
X284667Y91000
X297167Y83500
X312167Y91000
X322167Y91000
X332167Y91000
X347167Y83500
X362167Y91000
X372167Y91000
X382167Y91000
X382167Y73500
X372167Y73500
X347167Y53500
X332167Y73500
X322167Y73500
X297167Y53500
X284667Y73500
X274667Y73500
X237167Y73500
X227167Y73500
X202167Y83500
X189667Y76000
X179667Y76000
X142167Y73500
X132167Y73500
X154667Y56000
X202167Y53500
X249667Y53500
X249667Y101000
X237167Y121000
X227167Y121000
X217167Y121000
X202167Y131000
X202167Y141000
X212167Y141000
X222167Y141000
X232167Y133500
X249667Y131000
X249667Y141000
X259667Y141000
X269667Y141000
X279667Y133500
X297167Y131000
X297167Y141000
X307167Y141000
X317167Y141000
X327167Y133500
X347167Y131000
X347167Y141000
X357167Y141000
X367167Y141000
X377167Y133500
X382167Y121000
X372167Y121000
X362167Y121000
X332167Y121000
X322167Y121000
X312167Y121000
X284667Y121000
X274667Y121000
X264667Y121000
X297167Y101000
X347167Y101000
X327167Y163500
X324667Y176000
X334667Y176000
X374667Y176000
X384667Y176000
X377167Y163500
X287167Y176000
X277167Y176000
X279667Y163500
X239667Y176000
X229667Y176000
X232167Y163500
X192167Y178500
X182167Y178500
X184667Y166000
X174667Y143500
X164667Y143500
X154667Y143500
X154667Y133500
X137167Y133500
X127167Y141000
X117167Y141000
X107167Y141000
X107167Y131000
X89667Y133500
X79667Y141000
X69667Y141000
X59667Y141000
X62167Y131000
X74667Y121000
X84667Y121000
X94667Y121000
X122167Y121000
X132167Y121000
X142167Y121000
X169667Y123500
X179667Y123500
X189667Y123500
X184667Y136000
X137167Y163500
X134667Y176000
X144667Y176000
X97167Y176000
X87167Y176000
X89667Y163500
X49667Y171000
X37167Y163500
X19667Y161000
X19667Y151000
X19667Y141000
X17167Y133500
X37167Y133500
X39667Y121000
X49667Y121000
X29667Y121000
X17167Y103500
X29667Y91000
X39667Y91000
X49667Y91000
X62167Y101000
X107167Y101000
X154667Y103500
X94667Y73500
X84667Y73500
X107167Y53500
X62167Y53500
X9667Y83500
X49667Y181000
T02
X22167Y33500
X42167Y33500
X72167Y33500
X92167Y33500
X119667Y33500
X139667Y33500
X167167Y36000
X187167Y36000
X214667Y33500
X234667Y33500
X262167Y33500
X282167Y33500
X309667Y33500
X329667Y33500
X359667Y33500
X379667Y33500
X379667Y53500
X359667Y53500
X329667Y53500
X309667Y53500
X282167Y53500
X262167Y53500
X234667Y53500
X214667Y53500
X187167Y56000
X167167Y56000
X139667Y53500
X119667Y53500
X92167Y53500
X72167Y53500
X42167Y53500
X22167Y53500
T03
X164667Y11000
X174667Y11000
X184667Y11000
X197167Y11000
X207167Y11000
X219667Y11000
X229667Y11000
X242167Y11000
X252167Y11000
X24667Y193500
X14667Y193500
X167167Y196000
X177167Y196000
X189667Y196000
X199667Y196000
X212167Y196000
X222167Y196000
X234667Y196000
X244667Y196000
M30
