%
M48
M72
T01C0.03200
T02C0.04000
T03C0.04724
%
T01
X9667Y53500
X34667Y73500
X44667Y73500
X62167Y83500
X49667Y91000
X39667Y91000
X29667Y91000
X9667Y83500
X17167Y103500
X29667Y121000
X39667Y121000
X49667Y121000
X62167Y131000
X62167Y141000
X72167Y141000
X82167Y141000
X92167Y133500
X114667Y131000
X114667Y141000
X124667Y141000
X134667Y141000
X144667Y133500
X167167Y131000
X167167Y141000
X177167Y141000
X187167Y141000
X197167Y133500
X219667Y131000
X219667Y141000
X229667Y141000
X239667Y141000
X249667Y133500
X272167Y131000
X272167Y141000
X282167Y141000
X292167Y141000
X302167Y133500
X324667Y131000
X324667Y141000
X334667Y141000
X344667Y141000
X354667Y133500
X377167Y131000
X377167Y141000
X387167Y141000
X397167Y141000
X407167Y133500
X412167Y121000
X402167Y121000
X392167Y121000
X359667Y121000
X349667Y121000
X339667Y121000
X307167Y121000
X297167Y121000
X287167Y121000
X254667Y121000
X244667Y121000
X234667Y121000
X202167Y121000
X192167Y121000
X182167Y121000
X149667Y121000
X139667Y121000
X129667Y121000
X97167Y121000
X87167Y121000
X77167Y121000
X37167Y133500
X19667Y141000
X17167Y133500
X19667Y151000
X19667Y161000
X37167Y163500
X49667Y171000
X49667Y181000
X89667Y176000
X99667Y176000
X92167Y163500
X142167Y176000
X152167Y176000
X144667Y163500
X194667Y176000
X204667Y176000
X197167Y163500
X247167Y176000
X257167Y176000
X249667Y163500
X299667Y176000
X309667Y176000
X302167Y163500
X352167Y176000
X362167Y176000
X354667Y163500
X404667Y176000
X414667Y176000
X407167Y163500
X377167Y101000
X392167Y91000
X402167Y91000
X412167Y91000
X377167Y83500
X359667Y91000
X349667Y91000
X339667Y91000
X324667Y83500
X307167Y91000
X297167Y91000
X287167Y91000
X272167Y83500
X254667Y91000
X244667Y91000
X234667Y91000
X219667Y83500
X202167Y91000
X192167Y91000
X182167Y91000
X167167Y83500
X149667Y91000
X139667Y91000
X129667Y91000
X114667Y83500
X97167Y91000
X87167Y91000
X77167Y91000
X62167Y101000
X114667Y101000
X167167Y101000
X219667Y101000
X272167Y101000
X324667Y101000
X307167Y73500
X297167Y73500
X272167Y53500
X254667Y73500
X244667Y73500
X219667Y53500
X202167Y73500
X192167Y73500
X167167Y53500
X149667Y73500
X139667Y73500
X114667Y53500
X97167Y73500
X87167Y73500
X62167Y53500
X324667Y53500
X349667Y73500
X359667Y73500
X377167Y53500
X402167Y73500
X412167Y73500
T02
X22167Y33500
X42167Y33500
X74667Y33500
X94667Y33500
X127167Y33500
X147167Y33500
X179667Y33500
X199667Y33500
X232167Y33500
X252167Y33500
X284667Y33500
X304667Y33500
X337167Y33500
X357167Y33500
X389667Y33500
X409667Y33500
X409667Y53500
X389667Y53500
X357167Y53500
X337167Y53500
X304667Y53500
X284667Y53500
X252167Y53500
X232167Y53500
X199667Y53500
X179667Y53500
X147167Y53500
X127167Y53500
X94667Y53500
X74667Y53500
X42167Y53500
X22167Y53500
T03
X164667Y11000
X174667Y11000
X184667Y11000
X197167Y11000
X207167Y11000
X219667Y11000
X229667Y11000
X242167Y11000
X252167Y11000
X24667Y193500
X14667Y193500
X167167Y196000
X177167Y196000
X189667Y196000
X199667Y196000
X212167Y196000
X222167Y196000
X234667Y196000
X244667Y196000
M30
