G75*
%MOIN*%
%OFA0B0*%
%FSLAX25Y25*%
%IPPOS*%
%LPD*%
%AMOC8*
5,1,8,0,0,1.08239X$1,22.5*
%
%ADD10C,0.00600*%
%ADD11C,0.00400*%
%ADD12OC8,0.05200*%
%ADD13OC8,0.06300*%
%ADD14C,0.06300*%
%ADD15C,0.05200*%
%ADD16C,0.06000*%
%ADD17OC8,0.06000*%
%ADD18C,0.07087*%
D10*
X0007467Y0184503D02*
X0011737Y0184503D01*
D11*
X0034867Y0191967D02*
X0035634Y0191200D01*
X0037169Y0191200D01*
X0037936Y0191967D01*
X0037936Y0193502D01*
X0037169Y0194269D01*
X0036401Y0194269D01*
X0034867Y0193502D01*
X0034867Y0195804D01*
X0037936Y0195804D01*
X0039471Y0195804D02*
X0039471Y0192735D01*
X0041005Y0191200D01*
X0042540Y0192735D01*
X0042540Y0195804D01*
X0158901Y0023304D02*
X0157367Y0021769D01*
X0157367Y0018700D01*
X0157367Y0021002D02*
X0160436Y0021002D01*
X0160436Y0021769D02*
X0160436Y0018700D01*
X0161971Y0018700D02*
X0161971Y0023304D01*
X0164273Y0023304D01*
X0165040Y0022537D01*
X0165040Y0021002D01*
X0164273Y0020235D01*
X0161971Y0020235D01*
X0163505Y0020235D02*
X0165040Y0018700D01*
X0166575Y0018700D02*
X0169644Y0018700D01*
X0171178Y0018700D02*
X0171178Y0023304D01*
X0174248Y0023304D01*
X0172713Y0021002D02*
X0171178Y0021002D01*
X0169644Y0023304D02*
X0166575Y0023304D01*
X0166575Y0018700D01*
X0166575Y0021002D02*
X0168109Y0021002D01*
X0160436Y0021769D02*
X0158901Y0023304D01*
D12*
X0202167Y0053500D03*
X0249667Y0053500D03*
X0297167Y0053500D03*
X0347167Y0053500D03*
X0347167Y0083500D03*
X0347167Y0101000D03*
X0297167Y0101000D03*
X0297167Y0083500D03*
X0249667Y0083500D03*
X0249667Y0101000D03*
X0202167Y0101000D03*
X0202167Y0083500D03*
X0154667Y0086000D03*
X0154667Y0103500D03*
X0107167Y0101000D03*
X0107167Y0083500D03*
X0062167Y0083500D03*
X0062167Y0101000D03*
X0017167Y0103500D03*
X0009667Y0083500D03*
X0009667Y0053500D03*
X0062167Y0053500D03*
X0107167Y0053500D03*
X0154667Y0056000D03*
X0202167Y0131000D03*
X0184667Y0136000D03*
X0154667Y0133500D03*
X0137167Y0133500D03*
X0107167Y0131000D03*
X0089667Y0133500D03*
X0062167Y0131000D03*
X0037167Y0133500D03*
X0017167Y0133500D03*
X0037167Y0163500D03*
X0049667Y0171000D03*
X0049667Y0181000D03*
X0087167Y0176000D03*
X0097167Y0176000D03*
X0089667Y0163500D03*
X0134667Y0176000D03*
X0144667Y0176000D03*
X0137167Y0163500D03*
X0182167Y0178500D03*
X0192167Y0178500D03*
X0184667Y0166000D03*
X0229667Y0176000D03*
X0239667Y0176000D03*
X0232167Y0163500D03*
X0277167Y0176000D03*
X0287167Y0176000D03*
X0279667Y0163500D03*
X0324667Y0176000D03*
X0334667Y0176000D03*
X0327167Y0163500D03*
X0374667Y0176000D03*
X0384667Y0176000D03*
X0377167Y0163500D03*
X0377167Y0133500D03*
X0347167Y0131000D03*
X0327167Y0133500D03*
X0297167Y0131000D03*
X0279667Y0133500D03*
X0249667Y0131000D03*
X0232167Y0133500D03*
D13*
X0189667Y0076000D03*
X0237167Y0073500D03*
X0284667Y0073500D03*
X0332167Y0073500D03*
X0382167Y0073500D03*
X0142167Y0073500D03*
X0094667Y0073500D03*
X0044667Y0073500D03*
D14*
X0034667Y0073500D03*
X0084667Y0073500D03*
X0132167Y0073500D03*
X0179667Y0076000D03*
X0227167Y0073500D03*
X0274667Y0073500D03*
X0322167Y0073500D03*
X0372167Y0073500D03*
D15*
X0372167Y0088400D02*
X0372167Y0093600D01*
X0362167Y0093600D02*
X0362167Y0088400D01*
X0382167Y0088400D02*
X0382167Y0093600D01*
X0382167Y0118400D02*
X0382167Y0123600D01*
X0372167Y0123600D02*
X0372167Y0118400D01*
X0362167Y0118400D02*
X0362167Y0123600D01*
X0367167Y0138400D02*
X0367167Y0143600D01*
X0357167Y0143600D02*
X0357167Y0138400D01*
X0347167Y0138400D02*
X0347167Y0143600D01*
X0317167Y0143600D02*
X0317167Y0138400D01*
X0307167Y0138400D02*
X0307167Y0143600D01*
X0297167Y0143600D02*
X0297167Y0138400D01*
X0284667Y0123600D02*
X0284667Y0118400D01*
X0274667Y0118400D02*
X0274667Y0123600D01*
X0264667Y0123600D02*
X0264667Y0118400D01*
X0237167Y0118400D02*
X0237167Y0123600D01*
X0227167Y0123600D02*
X0227167Y0118400D01*
X0217167Y0118400D02*
X0217167Y0123600D01*
X0189667Y0126100D02*
X0189667Y0120900D01*
X0179667Y0120900D02*
X0179667Y0126100D01*
X0169667Y0126100D02*
X0169667Y0120900D01*
X0142167Y0118400D02*
X0142167Y0123600D01*
X0132167Y0123600D02*
X0132167Y0118400D01*
X0122167Y0118400D02*
X0122167Y0123600D01*
X0094667Y0123600D02*
X0094667Y0118400D01*
X0084667Y0118400D02*
X0084667Y0123600D01*
X0074667Y0123600D02*
X0074667Y0118400D01*
X0049667Y0118400D02*
X0049667Y0123600D01*
X0039667Y0123600D02*
X0039667Y0118400D01*
X0029667Y0118400D02*
X0029667Y0123600D01*
X0059667Y0138400D02*
X0059667Y0143600D01*
X0069667Y0143600D02*
X0069667Y0138400D01*
X0079667Y0138400D02*
X0079667Y0143600D01*
X0107167Y0143600D02*
X0107167Y0138400D01*
X0117167Y0138400D02*
X0117167Y0143600D01*
X0127167Y0143600D02*
X0127167Y0138400D01*
X0154667Y0140900D02*
X0154667Y0146100D01*
X0164667Y0146100D02*
X0164667Y0140900D01*
X0174667Y0140900D02*
X0174667Y0146100D01*
X0202167Y0143600D02*
X0202167Y0138400D01*
X0212167Y0138400D02*
X0212167Y0143600D01*
X0222167Y0143600D02*
X0222167Y0138400D01*
X0249667Y0138400D02*
X0249667Y0143600D01*
X0259667Y0143600D02*
X0259667Y0138400D01*
X0269667Y0138400D02*
X0269667Y0143600D01*
X0312167Y0123600D02*
X0312167Y0118400D01*
X0322167Y0118400D02*
X0322167Y0123600D01*
X0332167Y0123600D02*
X0332167Y0118400D01*
X0332167Y0093600D02*
X0332167Y0088400D01*
X0322167Y0088400D02*
X0322167Y0093600D01*
X0312167Y0093600D02*
X0312167Y0088400D01*
X0284667Y0088400D02*
X0284667Y0093600D01*
X0274667Y0093600D02*
X0274667Y0088400D01*
X0264667Y0088400D02*
X0264667Y0093600D01*
X0237167Y0093600D02*
X0237167Y0088400D01*
X0227167Y0088400D02*
X0227167Y0093600D01*
X0217167Y0093600D02*
X0217167Y0088400D01*
X0189667Y0090900D02*
X0189667Y0096100D01*
X0179667Y0096100D02*
X0179667Y0090900D01*
X0169667Y0090900D02*
X0169667Y0096100D01*
X0142167Y0093600D02*
X0142167Y0088400D01*
X0132167Y0088400D02*
X0132167Y0093600D01*
X0122167Y0093600D02*
X0122167Y0088400D01*
X0094667Y0088400D02*
X0094667Y0093600D01*
X0084667Y0093600D02*
X0084667Y0088400D01*
X0074667Y0088400D02*
X0074667Y0093600D01*
X0049667Y0093600D02*
X0049667Y0088400D01*
X0039667Y0088400D02*
X0039667Y0093600D01*
X0029667Y0093600D02*
X0029667Y0088400D01*
X0022267Y0141000D02*
X0017067Y0141000D01*
X0017067Y0151000D02*
X0022267Y0151000D01*
X0022267Y0161000D02*
X0017067Y0161000D01*
D16*
X0167167Y0056000D03*
X0119667Y0053500D03*
X0072167Y0053500D03*
X0022167Y0053500D03*
X0214667Y0053500D03*
X0262167Y0053500D03*
X0309667Y0053500D03*
X0359667Y0053500D03*
D17*
X0022167Y0033500D03*
X0042167Y0033500D03*
X0072167Y0033500D03*
X0092167Y0033500D03*
X0119667Y0033500D03*
X0139667Y0033500D03*
X0167167Y0036000D03*
X0187167Y0036000D03*
X0214667Y0033500D03*
X0234667Y0033500D03*
X0262167Y0033500D03*
X0282167Y0033500D03*
X0309667Y0033500D03*
X0329667Y0033500D03*
X0359667Y0033500D03*
X0379667Y0033500D03*
X0379667Y0053500D03*
X0329667Y0053500D03*
X0282167Y0053500D03*
X0234667Y0053500D03*
X0187167Y0056000D03*
X0139667Y0053500D03*
X0092167Y0053500D03*
X0042167Y0053500D03*
D18*
X0164667Y0014543D02*
X0164667Y0007457D01*
X0174667Y0007457D02*
X0174667Y0014543D01*
X0184667Y0014543D02*
X0184667Y0007457D01*
X0197167Y0007457D02*
X0197167Y0014543D01*
X0207167Y0014543D02*
X0207167Y0007457D01*
X0219667Y0007457D02*
X0219667Y0014543D01*
X0229667Y0014543D02*
X0229667Y0007457D01*
X0242167Y0007457D02*
X0242167Y0014543D01*
X0252167Y0014543D02*
X0252167Y0007457D01*
X0024667Y0189957D02*
X0024667Y0197043D01*
X0014667Y0197043D02*
X0014667Y0189957D01*
X0167167Y0192457D02*
X0167167Y0199543D01*
X0177167Y0199543D02*
X0177167Y0192457D01*
X0189667Y0192457D02*
X0189667Y0199543D01*
X0199667Y0199543D02*
X0199667Y0192457D01*
X0212167Y0192457D02*
X0212167Y0199543D01*
X0222167Y0199543D02*
X0222167Y0192457D01*
X0234667Y0192457D02*
X0234667Y0199543D01*
X0244667Y0199543D02*
X0244667Y0192457D01*
M02*
